<svg xmlns="http://www.w3.org/2000/svg" xmlns:xlink="http://www.w3.org/1999/xlink" viewBox="0 0 293.15 58.2"><defs><style>.cls-1{fill:url(#linear-gradient);}.cls-2{fill:url(#linear-gradient-2);}.cls-3{fill:url(#linear-gradient-3);}.cls-4{fill:#fff;}</style><linearGradient id="linear-gradient" x1="-4548.35" y1="1467.44" x2="-4510.9" y2="1504.89" gradientTransform="translate(4558.49 -1457.3)" gradientUnits="userSpaceOnUse"><stop offset="0" stop-color="#047"/><stop offset="1" stop-color="#83caff"/></linearGradient><linearGradient id="linear-gradient-2" x1="5.32" y1="29.1" x2="37.16" y2="29.1" gradientUnits="userSpaceOnUse"><stop offset="0" stop-color="#fff"/><stop offset="1" stop-color="#fff" stop-opacity="0.3"/></linearGradient><linearGradient id="linear-gradient-3" x1="15.96" y1="29.1" x2="47.8" y2="29.1" xlink:href="#linear-gradient-2"/></defs><title>TZ Logo Type</title><g id="Layer_2" data-name="Layer 2"><g id="Layer_1-2" data-name="Layer 1"><rect class="cls-1" width="58.2" height="58.2" rx="13.03" ry="13.03" transform="translate(58.2 58.2) rotate(180)"/><path class="cls-2" d="M32,10.67H10.44a5.13,5.13,0,0,0,0,10.25h5.68V42.4a5.12,5.12,0,0,0,10.24,0V20.92H32a5.13,5.13,0,0,0,0-10.25Z"/><path class="cls-3" d="M47.8,15.8h0a5.13,5.13,0,0,0-5.12-5.13H21.08a5.13,5.13,0,0,0,0,10.25H32L17.61,38.66a5.57,5.57,0,0,0-.89,1.1h0a5.11,5.11,0,0,0-.73,2.6l0,0,0,0a5.12,5.12,0,0,0,5.12,5.09H42.68a5.12,5.12,0,0,0,0-10.24H31.85L46.59,19.1A5.13,5.13,0,0,0,47.8,15.8Z"/><path class="cls-4" d="M72.62,33H88.49l-.76,3.28H82.47L79.85,47.59H74.66l2.62-11.28h-5.4Z"/><path class="cls-4" d="M90,33h9.18c1.66.09,5.48.21,5.48,4.21a4.74,4.74,0,0,1-.56,2.14,5.16,5.16,0,0,1-3.26,2.46l2.38,5.75H98L96.05,42.5H92.86l-1.18,5.09H86.59Zm3.69,6.11c3.44,0,4.45,0,5-.31a1.77,1.77,0,0,0,.8-1.3c0-1-.74-1.26-1.5-1.26H94.32Z"/><path class="cls-4" d="M108.27,33h5.2l-2,8.66c-.35,1.73.25,3.26,3.05,3.16a3.82,3.82,0,0,0,1.9-.5c1.25-.78,1.58-2,2.06-3.79L120.23,33h5.23l-2.14,9.26c-.35.82-.64,2.91-2.84,4.29a12.19,12.19,0,0,1-6.6,1.46c-3.75,0-6.41-.84-7.34-2.49a5.51,5.51,0,0,1-.24-3.92Z"/><path class="cls-4" d="M143.56,42.76c-.25,1.08-2.68,5.26-9,5.26-2.47,0-5.13-.64-6.68-2.39a7.1,7.1,0,0,1-1.58-4.56c0-3.71,3-8.55,10.16-8.55,2.41,0,4.9.58,6.51,2.37a4.58,4.58,0,0,1,1.18,2.56l-4.64.47c-.25-1.22-1.07-2.16-3.07-2.23A5,5,0,0,0,131.19,41a3.4,3.4,0,0,0,3.75,3.67c2.72-.08,3.78-1.48,4-2.39Z"/><path class="cls-4" d="M148,33h4.92l-1.23,5.41L157.55,33h6.35l-7.25,5.9,5.17,8.66h-5.65L153,41.9,150.4,44l-.84,3.57h-5Z"/><path class="cls-4" d="M166.87,33h15l-.74,3.22h-9.85l-.56,2.41h9.4l-.74,3.22H170l-.58,2.41H180l-.77,3.3h-15.7Z"/><path class="cls-4" d="M185.31,33h9.17c1.67.09,5.49.21,5.49,4.21a4.74,4.74,0,0,1-.56,2.14,5.16,5.16,0,0,1-3.26,2.46l2.38,5.75h-5.22l-1.92-5.09H188.2L187,47.59h-5.09ZM189,39.14c3.44,0,4.45,0,5-.31a1.77,1.77,0,0,0,.8-1.3c0-1-.74-1.26-1.5-1.26h-3.63Z"/><path class="cls-4" d="M203.06,33H218.7l-.76,3.24-11,8h9.46l-.76,3.36h-16.1l.77-3.34,10.78-7.94h-8.85Z"/><path class="cls-4" d="M236.3,35.08A5.89,5.89,0,0,1,237.68,39c0,3.49-2.35,9-10.34,9-2.46,0-4.93-.58-6.54-2.21A6.29,6.29,0,0,1,219,41.3c0-3.5,2.72-8.88,10.53-8.76C232.12,32.58,234.76,33.26,236.3,35.08Zm-12.1,6.1a3.36,3.36,0,0,0,3.51,3.64c2.86,0,4.86-2.34,4.86-5.54,0-3-2-3.52-3.42-3.5C225.67,35.84,224.2,38.87,224.2,41.18Z"/><path class="cls-4" d="M256.48,35.08A5.89,5.89,0,0,1,257.86,39c0,3.49-2.35,9-10.35,9-2.45,0-4.92-.58-6.53-2.21a6.25,6.25,0,0,1-1.79-4.49c0-3.5,2.72-8.88,10.53-8.76C252.29,32.58,254.93,33.26,256.48,35.08Zm-12.1,6.1a3.36,3.36,0,0,0,3.5,3.64c2.87,0,4.87-2.34,4.87-5.54,0-3-2-3.52-3.42-3.5C245.84,35.84,244.38,38.87,244.38,41.18Z"/><path class="cls-4" d="M262.19,33h7.13l.29,9.9,4.76-9.9h7.23l-3.38,14.56h-4.7l2.72-11.34-5.71,11.34h-3.91l-.5-11.4-2.47,11.4h-4.84Z"/><path class="cls-4" d="M283.63,33h4.1l-.19.78h-1.36l-.68,2.68h-1.35l.68-2.68h-1.4Z"/><path class="cls-4" d="M288.12,33H290l.07,2.35L291.28,33h1.87l-.88,3.46h-1.21l.7-2.69-1.48,2.69h-1l-.13-2.71-.64,2.71h-1.25Z"/></g></g></svg>