<?xml version="1.0" encoding="utf-8"?>
<!-- Generator: Adobe Illustrator 22.0.1, SVG Export Plug-In . SVG Version: 6.00 Build 0)  -->
<svg version="1.1" id="Ebene_1" xmlns="http://www.w3.org/2000/svg" xmlns:xlink="http://www.w3.org/1999/xlink" x="0px" y="0px"
	 width="400px" height="120px" viewBox="0 0 400 120" style="enable-background:new 0 0 400 120;" xml:space="preserve">
<style type="text/css">
	.st0{fill:none;stroke:#FFFFFF;stroke-width:2;stroke-linecap:round;}
	.st1{fill:none;stroke:#FFFFFF;}
	.st2{fill:#FFFFFF;}
	.st3{fill:#231F20;}
	.st4{opacity:0.75;fill:none;stroke:#FFFFFF;stroke-width:5;enable-background:new    ;}
	.st5{fill:none;stroke:#FFFFFF;stroke-width:5;}
	.st6{opacity:0.4;fill:#FFFFFF;enable-background:new    ;}
	.st7{opacity:0.6;fill:#FFFFFF;enable-background:new    ;}
	.st8{opacity:0.8;fill:#FFFFFF;enable-background:new    ;}
	.st9{opacity:0.9;fill:#FFFFFF;enable-background:new    ;}
	.st10{opacity:0.3;fill:#FFFFFF;enable-background:new    ;}
	.st11{opacity:0.5;fill:#FFFFFF;enable-background:new    ;}
	.st12{opacity:0.7;fill:#FFFFFF;enable-background:new    ;}
	.st13{fill:none;enable-background:new    ;}
	.st14{fill:#FFFFFF;enable-background:new    ;}
</style>
<path class="st0" d="M54.8,6.5l4.5,4.5 M54.8,11l4.5-4.5"/>
<path class="st1" d="M128.7,8.6c-6.2-4.2-6.5,7.8,0,3.9 M135.2,8.6c-6.2-4.2-6.5,7.8,0,3.9"/>
<path class="st2" d="M122.2,3.4h15.7v13.1h-15.7V3.4z M120.8,2v15.7h18.3V2H120.8z"/>
<path class="st2" d="M143.2,3h14c1.1,0,2,0.9,2,2v10c0,1.1-0.9,2-2,2h-14c-1.1,0-2-0.9-2-2V5C141.2,3.9,142.1,3,143.2,3z"/>
<path class="st3" d="M146.4,13.8c-0.8,0-1.6-0.4-2.1-1c-1.1-1.4-1-3.4,0.1-4.8c0.5-0.6,2-1.7,4.6,0.2L148.4,9
	c-1.4-1-2.6-1.1-3.3-0.3c-0.8,1-0.8,2.4-0.1,3.5c0.7,0.9,1.9,0.8,3.4-0.1l0.5,0.9C148.2,13.5,147.3,13.7,146.4,13.8L146.4,13.8z
	 M153.9,13.8c-0.8,0-1.6-0.4-2.1-1c-1.1-1.4-1-3.4,0.1-4.8c0.5-0.6,2-1.7,4.6,0.2L156,9c-1.4-1-2.6-1.1-3.3-0.3
	c-0.8,1-0.8,2.4-0.1,3.5c0.7,0.9,1.9,0.8,3.4-0.1l0.5,0.9C155.7,13.5,154.8,13.7,153.9,13.8L153.9,13.8z"/>
<path class="st2" d="M60.3,77c0.6,0.2,0.8,0.8,0.6,1.4c-0.1,0.3-0.3,0.5-0.6,0.6L30,96.5c-1,0.6-1.7,0.1-1.7-1v-35
	c0-1.1,0.8-1.5,1.7-1L60.3,77z"/>
<path class="st4" d="M2.5,79c0-20.7,16.8-37.5,37.5-37.5S77.5,58.3,77.5,79S60.7,116.5,40,116.5S2.5,99.7,2.5,79z"/>
<path class="st2" d="M140.3,77c0.6,0.2,0.8,0.8,0.6,1.4c-0.1,0.3-0.3,0.5-0.6,0.6L110,96.5c-1,0.6-1.7,0.1-1.7-1v-35
	c0-1.1,0.8-1.5,1.7-1L140.3,77z"/>
<path class="st5" d="M82.5,79c0-20.7,16.8-37.5,37.5-37.5s37.5,16.8,37.5,37.5s-16.8,37.5-37.5,37.5S82.5,99.7,82.5,79z"/>
<circle class="st2" cx="201.9" cy="47.1" r="8.1"/>
<circle class="st6" cx="233.9" cy="79" r="5"/>
<circle class="st7" cx="201.9" cy="110.9" r="6"/>
<circle class="st8" cx="170.1" cy="79" r="7"/>
<circle class="st9" cx="178.2" cy="56.3" r="7.5"/>
<circle class="st10" cx="226.3" cy="56.1" r="4.5"/>
<circle class="st11" cx="225.8" cy="102.8" r="5.5"/>
<circle class="st12" cx="178.2" cy="102.8" r="6.5"/>
<path class="st2" d="M178,9.4c0,0.4-0.4,0.7-0.9,0.7c-0.1,0-0.2,0-0.2-0.1L172,8.2c-0.5-0.2-0.6-0.6-0.1-0.8l6.2-3.6
	c0.5-0.3,0.8-0.1,0.7,0.5L178,9.4L178,9.4z"/>
<path class="st2" d="M169.4,15.9c-1,0-2-0.2-2.9-0.7c-2-1-3.2-3-3.2-5.2c0.1-3.4,2.9-6,6.3-6c2.5,0.1,4.8,1.7,5.6,4.1l0.1-0.1
	l2.1,1.1c-0.6-4.4-4.7-7.5-9.1-6.9c-3.9,0.6-6.9,3.9-7,7.9c0,2.9,1.7,5.6,4.3,7c1.2,0.6,2.5,0.9,3.8,1c2.6,0,5-1.2,6.6-3.3l-1.8-0.9
	C173,15.1,171.2,15.9,169.4,15.9L169.4,15.9z"/>
<path class="st2" d="M183.4,3.2c0.8,0,1.5,0.7,1.5,1.5s-0.7,1.5-1.5,1.5s-1.5-0.7-1.5-1.5C181.9,3.8,182.6,3.2,183.4,3.2z
	 M188.5,3.2h8.5c0.9,0,1.5,0.7,1.5,1.5s-0.7,1.5-1.5,1.5h-8.5c-0.9,0-1.5-0.7-1.5-1.5C186.9,3.8,187.6,3.2,188.5,3.2z M183.4,8.2
	c0.8,0,1.5,0.7,1.5,1.5s-0.7,1.5-1.5,1.5s-1.5-0.7-1.5-1.5C181.9,8.8,182.6,8.2,183.4,8.2z M188.5,8.2h8.5c0.9,0,1.5,0.7,1.5,1.5
	s-0.7,1.5-1.5,1.5h-8.5c-0.9,0-1.5-0.7-1.5-1.5C186.9,8.8,187.6,8.2,188.5,8.2z M183.4,13.2c0.8,0,1.5,0.7,1.5,1.5s-0.7,1.5-1.5,1.5
	s-1.5-0.7-1.5-1.5C181.9,13.8,182.6,13.2,183.4,13.2z M188.5,13.2h8.5c0.9,0,1.5,0.7,1.5,1.5s-0.7,1.5-1.5,1.5h-8.5
	c-0.9,0-1.5-0.7-1.5-1.5C186.9,13.8,187.6,13.2,188.5,13.2z"/>
<path class="st13" d="M2.7,0.6"/>
<g id="play">
	<path id="Polygon" class="st2" d="M16.7,9.1l-11,5.5v-11L16.7,9.1z"/>
</g>
<path class="st14" d="M2.7,0.6"/>
<g id="pause">
	<rect x="26" y="3.1" class="st2" width="3" height="12"/>
	<rect x="33" y="3.1" class="st2" width="3" height="12"/>
</g>
<g id="sound_x25_20bars">
	<rect x="65" y="6.1" class="st2" width="5" height="6"/>
	<path class="st2" d="M69,6.1l4-3v12l-4-2.9V6.1z"/>
	<path class="st1" d="M75,3.1c0,0,3.1-0.6,3,6s-3,6-3,6"/>
	<path class="st1" d="M74,6.1c0,0,2-0.3,2,3c0,3.3-2,3-2,3"/>
</g>
<g id="no_x25_20sound">
	<rect x="45" y="6.1" class="st2" width="5" height="6"/>
	<path class="st2" d="M49,6.1l4-3v12l-4-2.9V6.1z"/>
</g>
<path class="st2" d="M94,4.1v10H84v-10H94 M95,3.1H83v12h12V3.1L95,3.1z"/>
<g id="exit">
	<path class="st2" d="M109,7.1h4l-4-4V7.1z"/>
	<path class="st2" d="M105,7.1v-4l-4,4H105z"/>
	<path class="st2" d="M105,11.1h-4l4,4V11.1z"/>
	<path class="st2" d="M109,11.1v4l4-4H109z"/>
</g>
</svg>
